<?xml version="1.0" encoding="utf-8"?>
<svg version="1.1" xmlns:xlink="http://www.w3.org/1999/xlink" width="62px" height="73px" xmlns="http://www.w3.org/2000/svg">
  <g transform="matrix(1 0 0 1 -204 -11 )">
    <path d="M 37.8544444444444 66  L 24.1455555555555 66  C 24.1455555555555 69.9061904761905  27.2111111111111 73  31 73  C 34.7888888888889 72.9999999999999  37.8544444444444 69.9061904761905  37.8544444444444 66  Z M 62.0000000000001 58.8866666666667  L 54 51.5171428571429  L 54 31.2857142857144  C 54.6977777777778 19.9880952380953  46.9477777777778 10.5328571428573  36.4766666666667 8.0300000000001  L 36.4766666666668 5.52714285714293  C 36.4766666666668 2.4680952380953  34.0311111111111 0  31.0000000000001 0  C 27.968888888889 0  25.5233333333333 2.46809523809537  25.5233333333333 5.52714285714299  L 25.5233333333335 8.03000000000003  C 15.0522222222223 10.5328571428572  7.30222222222217 19.9880952380954  8 31.2857142857143  L 8 51.5171428571429  L 0 58.8866666666667  L 0 62  L 62 62  L 62.0000000000001 58.8866666666667  Z M 27.5555555555556 48.6840476190476  L 34.4444444444445 48.6840476190477  L 27.5555555555556 48.6840476190476  Z " fill-rule="nonzero" fill="#d8defc" stroke="none" fill-opacity="0.6" transform="matrix(1 0 0 1 204 11 )" />
  </g>
</svg>