<?xml version="1.0" encoding="utf-8"?>
<svg version="1.1" xmlns:xlink="http://www.w3.org/1999/xlink" width="62px" height="59px" xmlns="http://www.w3.org/2000/svg">
  <g transform="matrix(1 0 0 1 -188 -20 )">
    <path d="M 62 52.7894736842105  L 61.969 21.7368421052632  C 61.969 19.501052631579  60.8065 17.5602631578947  59.055 16.4578947368421  L 31 0  L 2.945 16.4578947368421  C 1.1935 17.5602631578947  0 19.501052631579  0 21.7368421052632  L 0 52.7894736842105  C 0 56.2207894736842  2.7745 59  6.2 59  L 55.8 59  C 59.2255 59  62 56.2207894736842  62 52.7894736842105  Z M 56.606 21.2244736842105  L 31 37.2631578947368  L 5.394 21.2244736842105  L 31 6.21052631578947  L 56.606 21.2244736842105  Z " fill-rule="nonzero" fill="#d8defc" stroke="none" fill-opacity="0.6" transform="matrix(1 0 0 1 188 20 )" />
  </g>
</svg>