<?xml version="1.0" encoding="utf-8"?>
<svg version="1.1" xmlns:xlink="http://www.w3.org/1999/xlink" width="86px" height="55px" xmlns="http://www.w3.org/2000/svg">
  <g transform="matrix(1 0 0 1 -188 -18 )">
    <path d="M 5.07638888888889 32.6373626373626  C 5.47453703703704 33.4432234432234  6.1712962962963 33.8461538461538  7.16666666666667 33.8461538461538  C 8.16203703703704 33.8461538461538  8.8587962962963 33.4432234432234  9.25694444444444 32.6373626373626  C 9.65509259259259 31.8315018315018  9.65509259259259 31.025641025641  9.25694444444444 30.2197802197802  C 8.8587962962963 29.4139194139194  8.16203703703704 29.010989010989  7.16666666666667 29.010989010989  C 6.1712962962963 29.010989010989  5.47453703703704 29.4139194139194  5.07638888888889 30.2197802197802  C 4.67824074074074 31.025641025641  4.67824074074074 31.8315018315018  5.07638888888889 32.6373626373626  Z M 63.2868923611111 34.4316620879121  C 63.1997974537037 33.4369276556777  62.8203125 32.5114468864469  62.1484375 31.6552197802198  C 61.8995949074074 31.3278388278388  61.4205729166667 30.6982600732601  60.7113715277778 29.7664835164835  C 60.0021701388889 28.834706959707  59.4858217592593 28.1547619047619  59.1623263888889 27.7266483516484  C 58.8388310185185 27.2985347985348  58.3660300925926 26.6815476190476  57.7439236111111 25.8756868131868  C 57.1218171296296 25.069826007326  56.5930266203704 24.4024725274725  56.1575520833333 23.8736263736264  C 55.7220775462963 23.3447802197802  55.2181712962963 22.7529761904762  54.6458333333333 22.0982142857143  C 54.0734953703704 21.4434523809524  53.513599537037 20.8264652014652  52.9661458333333 20.2472527472527  L 48.3003472222222 25.5357142857143  C 46.2349537037037 27.9029304029304  43.6407696759259 29.0613553113553  40.5177951388889 29.010989010989  C 37.3948206018519 28.9606227106227  34.837962962963 27.7266483516484  32.8472222222222 25.3090659340659  C 31.4288194444444 23.5714285714286  30.7258391203704 21.5819597069597  30.73828125 19.3406593406593  C 30.7507233796296 17.099358974359  31.478587962963 15.1224816849817  32.921875 13.4100274725275  L 39.5286458333333 5.62843406593406  C 38.9811921296296 5.35141941391941  38.3466435185185 5.14365842490842  37.625 5.0051510989011  C 36.9033564814815 4.86664377289377  36.3123553240741 4.79109432234432  35.8519965277778 4.77850274725275  C 35.3916377314815 4.76591117216117  34.6886574074074 4.77220695970695  33.7430555555556 4.79739010989011  C 32.7974537037037 4.82257326007326  32.1877893518519 4.83516483516484  31.9140625 4.83516483516484  C 29.6247106481481 4.83516483516484  27.6588541666667 5.66620879120879  26.0164930555556 7.3282967032967  L 20.1189236111111 13.2967032967033  L 15 13.2967032967033  L 15 33.8461538461538  C 14.4577546296296 33.8461538461538  14.7190393518519 33.8398580586081  15.1171875 33.8272664835165  C 15.5153356481482 33.8146749084249  15.7890625 33.8146749084249  15.9383680555556 33.8272664835165  C 16.0876736111111 33.8398580586081  16.3302951388889 33.8650412087912  16.6662326388889 33.9028159340659  C 17.0021701388889 33.9405906593407  17.2572337962963 33.9972527472528  17.4314236111111 34.0728021978022  C 17.6056134259259 34.1483516483517  17.8233506944444 34.25538003663  18.0846354166667 34.3938873626374  C 18.3459201388889 34.5323946886447  18.576099537037 34.7023809523809  18.7751736111111 34.9038461538462  L 29.8611111111111 45.9340659340659  C 32.7228009259259 48.7293956043956  35.5471643518519 50.1270604395604  38.3342013888889 50.1270604395604  C 40.2751736111111 50.1270604395604  41.8304398148148 49.5352564102564  43 48.3516483516484  C 44.4184027777778 48.8553113553114  45.8181423611111 48.7545787545788  47.19921875 48.0494505494505  C 48.5802951388889 47.3443223443223  49.482349537037 46.2740384615385  49.9053819444444 44.8385989010989  C 51.7468171296296 44.9896978021978  53.3269675925926 44.4356684981685  54.6458333333333 43.176510989011  C 55.1435185185185 42.7232142857143  55.5914351851852 42.1502976190476  55.9895833333333 41.457760989011  C 56.3877314814815 40.7652243589744  56.5619212962963 40.1293498168498  56.5121527777778 39.5501373626374  C 56.7609953703704 39.8019688644689  57.2960069444444 39.9278846153846  58.1171875 39.9278846153846  C 59.1872106481482 39.9278846153846  60.1452546296296 39.6634615384615  60.9913194444444 39.1346153846154  C 61.8373842592593 38.6057692307692  62.4532696759259 37.9384157509158  62.8389756944444 37.1325549450549  C 63.224681712963 36.3266941391941  63.3739872685185 35.4263965201465  63.2868923611111 34.4316620879121  Z M 65.84375 28.5576923076923  C 67.1377314814815 30.2197802197802  67.8842592592593 31.9826007326007  68.0833333333333 33.8461538461538  L 71 33.8461538461538  L 71 14.5054945054945  L 68.1953125 14.5054945054945  L 62.3350694444444 7.70604395604395  C 60.6927083333333 5.79212454212454  58.5899884259259 4.83516483516484  56.0269097222222 4.83516483516484  L 49.7934027777778 4.83516483516484  C 47.5787037037037 4.83516483516484  45.7621527777778 5.67880036630036  44.34375 7.36607142857143  L 36.5425347222222 16.5453296703297  C 35.845775462963 17.3763736263736  35.4973958333333 18.3207417582418  35.4973958333333 19.3784340659341  C 35.4973958333333 20.4361263736264  35.8333333333333 21.3804945054945  36.5052083333333 22.2115384615385  C 37.5752314814815 23.4958791208791  38.9438657407407 24.150641025641  40.6111111111111 24.1758241758242  C 42.2783564814815 24.2010073260073  43.6594328703704 23.5840201465201  44.7543402777778 22.3248626373626  L 51.9583333333333 14.0899725274725  C 52.5804398148148 13.5107600732601  53.24609375 13.2400412087912  53.9552951388889 13.2778159340659  C 54.6644965277778 13.3155906593407  55.2492766203704 13.6555631868132  55.7096354166667 14.2977335164835  C 56.169994212963 14.9399038461538  56.2757523148148 15.6513278388278  56.0269097222222 16.4320054945055  C 56.4250578703704 16.9104853479854  57.1218171296296 17.7037545787546  58.1171875 18.8118131868132  C 59.1125578703704 19.9198717948718  59.8590856481482 20.7760989010989  60.3567708333333 21.3804945054945  C 61.0784143518519 22.2870879120879  62.1048900462963 23.6154990842491  63.4361979166667 25.365728021978  C 64.767505787037 27.115956959707  65.5700231481482 28.1799450549451  65.84375 28.5576923076923  Z M 76.7430555555556 32.6373626373626  C 77.1412037037037 33.4432234432234  77.837962962963 33.8461538461538  78.8333333333333 33.8461538461538  C 79.8287037037037 33.8461538461538  80.525462962963 33.4432234432234  80.9236111111111 32.6373626373626  C 81.3217592592593 31.8315018315018  81.3217592592593 31.025641025641  80.9236111111111 30.2197802197802  C 80.525462962963 29.4139194139194  79.8287037037037 29.010989010989  78.8333333333333 29.010989010989  C 77.837962962963 29.010989010989  77.1412037037037 29.4139194139194  76.7430555555556 30.2197802197802  C 76.3449074074074 31.025641025641  76.3449074074074 31.8315018315018  76.7430555555556 32.6373626373626  Z M 85.2907986111111 10.3880494505495  C 85.7635995370371 10.8665293040293  86 11.4331501831502  86 12.0879120879121  L 86 36.2637362637363  C 86 36.9184981684982  85.7635995370371 37.4851190476191  85.2907986111111 37.9635989010989  C 84.8179976851852 38.4420787545788  84.2581018518519 38.6813186813187  83.6111111111111 38  L 67.4114583333333 38  C 66.7395833333333 40.3182234432234  65.7193287037037 41.6592261904762  64.3506944444444 42.7043269230769  C 62.9820601851852 43.7494276556777  61.4267939814815 44.3978937728938  59.6848958333333 44.6497252747253  C 58.8637152777778 45.8585164835165  57.8621238425926 46.8847298534799  56.6801215277778 47.7283653846154  C 55.498119212963 48.5720009157509  54.2228009259259 49.1449175824176  52.8541666666667 49.4471153846154  C 51.8090277777778 50.7818223443223  50.5088252314815 51.8080357142857  48.9535590277778 52.5257554945055  C 47.3982928240741 53.2434752747253  45.7994791666667 53.5519688644689  44.1571180555556 53.4512362637363  C 42.6640625 54.3074633699634  41.0963541666667 54.8048305860806  39.4539930555556 54.9433379120879  C 37.8116319444444 55.0818452380952  36.2252604166667 54.9055631868132  34.6948784722222 54.4144917582418  C 33.1644965277778 53.9234203296703  31.7087673611111 53.2497710622711  30.3276909722222 52.393543956044  C 28.9466145833333 51.5373168498168  27.6588541666667 50.5173992673993  26.4644097222222 49.3337912087912  L 15.7517361111111 38  L 2.38888888888889 38  C 1.74189814814815 38.6813186813187  1.18200231481481 38.4420787545788  0.709201388888889 37.9635989010989  C 0.236400462962963 37.4851190476191  0 36.9184981684982  0 36.2637362637363  L 0 10.8791208791209  C 0 10.224358974359  0.236400462962963 9.65773809523809  0.709201388888889 9.17925824175824  C 1.18200231481481 8.70077838827839  1.74189814814815 8.46153846153846  2.38888888888889 9  L 18.1032986111111 9  C 18.4516782407407 8.10897435897435  19.0364583333333 7.50457875457875  19.8576388888889 6.64835164835165  C 20.6788194444444 5.79212454212454  21.2698206018519 5.18772893772894  21.6306423611111 4.83516483516484  C 21.9914641203704 4.48260073260073  22.5389178240741 3.97893772893773  23.2730034722222 3.32417582417582  C 24.0070891203704 2.66941391941392  24.6354166666667 2.19722985347985  25.1579861111111 1.90762362637363  C 25.6805555555556 1.61801739926739  26.3151041666667 1.29693223443223  27.0616319444444 0.944368131868135  C 27.8081597222222 0.591804029304021  28.5795717592593 0.346268315018308  29.3758680555556 0.207760989010988  C 30.1721643518519 0.0692536630036628  31.0182291666667 0  31.9140625 0  L 36.28125 0  C 38.7447916666667 0  40.9968171296296 0.705128205128197  43.0373263888889 2.11538461538461  C 45.0778356481482 0.705128205128197  47.3298611111111 0  49.7934027777778 0  L 56.0269097222222 0  C 56.8978587962963 0  57.7314814814815 0.0755494505494503  58.5277777777778 0.226648351648351  C 59.3240740740741 0.377747252747251  60.0270543981482 0.56032509157509  60.63671875 0.774381868131865  C 61.2463831018519 0.988438644688641  61.8871527777778 1.32211538461539  62.5590277777778 1.77541208791209  C 63.2309027777778 2.22870879120879  63.7845775462963 2.61904761904762  64.2200520833333 2.94642857142857  C 64.6555266203704 3.27380952380952  65.1905381944444 3.77117673992674  65.8250868055556 4.43853021978022  C 66.4596354166667 5.10588369963369  66.9448784722222 5.63472985347985  67.2808159722222 6.02506868131868  C 67.6167534722222 6.4154075091575  68.126880787037 7.01980311355311  68.8111979166667 7.8382554945055  C 69.4955150462963 8.65670787545787  70.0118634259259 9.26739926739926  70.3602430555556 10  L 83.6111111111111 10  C 84.2581018518519 9.67032967032967  84.8179976851852 9.90956959706959  85.2907986111111 10.3880494505495  Z " fill-rule="nonzero" fill="#d8defc" stroke="none" fill-opacity="0.6" transform="matrix(1 0 0 1 188 18 )" />
  </g>
</svg>